<mxfile host="app.diagrams.net" modified="2024-03-09T10:03:00.449Z" agent="Mozilla/5.0 (Windows NT 10.0; Win64; x64) AppleWebKit/537.36 (KHTML, like Gecko) Chrome/121.0.0.0 Safari/537.36 Edg/121.0.0.0" etag="HMjo39kP59H5a00tieee" version="24.0.1" type="github">
  <diagram name="第 1 页" id="1_HqDCQ-dHmruRY8cEo1">
    <mxGraphModel dx="1042" dy="543" grid="1" gridSize="10" guides="1" tooltips="1" connect="1" arrows="1" fold="1" page="1" pageScale="1" pageWidth="827" pageHeight="1169" math="0" shadow="0">
      <root>
        <mxCell id="0" />
        <mxCell id="1" parent="0" />
        <mxCell id="-SEWYiFgOWvP7asbk5Ls-24" value="" style="rounded=0;whiteSpace=wrap;html=1;dashed=1;" parent="1" vertex="1">
          <mxGeometry x="355" y="1233" width="290" height="255" as="geometry" />
        </mxCell>
        <mxCell id="-SEWYiFgOWvP7asbk5Ls-22" value="" style="rounded=0;whiteSpace=wrap;html=1;dashed=1;" parent="1" vertex="1">
          <mxGeometry x="24" y="1230" width="186" height="255" as="geometry" />
        </mxCell>
        <mxCell id="m4xQPMhim5gjdKh0QAaY-30" value="" style="rounded=0;whiteSpace=wrap;html=1;dashed=1;dashPattern=8 8;" parent="1" vertex="1">
          <mxGeometry x="430" y="760" width="280" height="217" as="geometry" />
        </mxCell>
        <mxCell id="m4xQPMhim5gjdKh0QAaY-28" value="" style="rounded=0;whiteSpace=wrap;html=1;strokeColor=default;dashed=1;dashPattern=8 8;" parent="1" vertex="1">
          <mxGeometry x="70" y="585" width="350" height="395" as="geometry" />
        </mxCell>
        <mxCell id="DKz1Kuc2ZKXOYus95oos-3" value="" style="edgeStyle=orthogonalEdgeStyle;rounded=0;orthogonalLoop=1;jettySize=auto;html=1;" parent="1" source="DKz1Kuc2ZKXOYus95oos-1" target="DKz1Kuc2ZKXOYus95oos-2" edge="1">
          <mxGeometry relative="1" as="geometry" />
        </mxCell>
        <mxCell id="DKz1Kuc2ZKXOYus95oos-1" value="Socket()" style="rounded=0;whiteSpace=wrap;html=1;" parent="1" vertex="1">
          <mxGeometry x="500" y="70" width="110" height="20" as="geometry" />
        </mxCell>
        <mxCell id="DKz1Kuc2ZKXOYus95oos-5" value="" style="edgeStyle=orthogonalEdgeStyle;rounded=0;orthogonalLoop=1;jettySize=auto;html=1;" parent="1" source="DKz1Kuc2ZKXOYus95oos-2" target="DKz1Kuc2ZKXOYus95oos-4" edge="1">
          <mxGeometry relative="1" as="geometry" />
        </mxCell>
        <mxCell id="DKz1Kuc2ZKXOYus95oos-2" value="Bind()" style="rounded=0;whiteSpace=wrap;html=1;" parent="1" vertex="1">
          <mxGeometry x="500" y="117" width="110" height="20" as="geometry" />
        </mxCell>
        <mxCell id="DKz1Kuc2ZKXOYus95oos-7" value="" style="edgeStyle=orthogonalEdgeStyle;rounded=0;orthogonalLoop=1;jettySize=auto;html=1;" parent="1" source="DKz1Kuc2ZKXOYus95oos-4" target="DKz1Kuc2ZKXOYus95oos-6" edge="1">
          <mxGeometry relative="1" as="geometry" />
        </mxCell>
        <mxCell id="DKz1Kuc2ZKXOYus95oos-4" value="Listen()" style="rounded=0;whiteSpace=wrap;html=1;" parent="1" vertex="1">
          <mxGeometry x="500" y="164" width="110" height="20" as="geometry" />
        </mxCell>
        <mxCell id="DKz1Kuc2ZKXOYus95oos-9" value="" style="edgeStyle=orthogonalEdgeStyle;rounded=0;orthogonalLoop=1;jettySize=auto;html=1;" parent="1" source="DKz1Kuc2ZKXOYus95oos-6" target="DKz1Kuc2ZKXOYus95oos-8" edge="1">
          <mxGeometry relative="1" as="geometry" />
        </mxCell>
        <mxCell id="DKz1Kuc2ZKXOYus95oos-6" value="Accept()" style="rounded=0;whiteSpace=wrap;html=1;" parent="1" vertex="1">
          <mxGeometry x="500" y="211" width="110" height="20" as="geometry" />
        </mxCell>
        <mxCell id="DKz1Kuc2ZKXOYus95oos-11" value="" style="edgeStyle=orthogonalEdgeStyle;rounded=0;orthogonalLoop=1;jettySize=auto;html=1;" parent="1" source="DKz1Kuc2ZKXOYus95oos-8" target="DKz1Kuc2ZKXOYus95oos-10" edge="1">
          <mxGeometry relative="1" as="geometry" />
        </mxCell>
        <mxCell id="DKz1Kuc2ZKXOYus95oos-8" value="阻塞等待客户端" style="rhombus;whiteSpace=wrap;html=1;" parent="1" vertex="1">
          <mxGeometry x="475" y="260" width="160" height="50" as="geometry" />
        </mxCell>
        <mxCell id="DKz1Kuc2ZKXOYus95oos-17" value="" style="edgeStyle=orthogonalEdgeStyle;rounded=0;orthogonalLoop=1;jettySize=auto;html=1;" parent="1" source="DKz1Kuc2ZKXOYus95oos-10" target="DKz1Kuc2ZKXOYus95oos-16" edge="1">
          <mxGeometry relative="1" as="geometry" />
        </mxCell>
        <mxCell id="DKz1Kuc2ZKXOYus95oos-10" value="Recv()" style="whiteSpace=wrap;html=1;" parent="1" vertex="1">
          <mxGeometry x="500" y="340" width="110" height="20" as="geometry" />
        </mxCell>
        <mxCell id="DKz1Kuc2ZKXOYus95oos-22" style="edgeStyle=orthogonalEdgeStyle;rounded=0;orthogonalLoop=1;jettySize=auto;html=1;exitX=0.5;exitY=1;exitDx=0;exitDy=0;entryX=0.5;entryY=0;entryDx=0;entryDy=0;" parent="1" source="DKz1Kuc2ZKXOYus95oos-16" target="DKz1Kuc2ZKXOYus95oos-19" edge="1">
          <mxGeometry relative="1" as="geometry" />
        </mxCell>
        <mxCell id="DKz1Kuc2ZKXOYus95oos-16" value="处理请求" style="rhombus;whiteSpace=wrap;html=1;" parent="1" vertex="1">
          <mxGeometry x="480" y="390" width="150" height="40" as="geometry" />
        </mxCell>
        <mxCell id="DKz1Kuc2ZKXOYus95oos-18" value="" style="edgeStyle=orthogonalEdgeStyle;rounded=0;orthogonalLoop=1;jettySize=auto;html=1;" parent="1" source="DKz1Kuc2ZKXOYus95oos-19" target="DKz1Kuc2ZKXOYus95oos-20" edge="1">
          <mxGeometry relative="1" as="geometry" />
        </mxCell>
        <mxCell id="DKz1Kuc2ZKXOYus95oos-40" style="rounded=0;orthogonalLoop=1;jettySize=auto;html=1;exitX=0;exitY=0.5;exitDx=0;exitDy=0;entryX=1;entryY=0.5;entryDx=0;entryDy=0;" parent="1" source="DKz1Kuc2ZKXOYus95oos-19" target="DKz1Kuc2ZKXOYus95oos-30" edge="1">
          <mxGeometry relative="1" as="geometry" />
        </mxCell>
        <mxCell id="DKz1Kuc2ZKXOYus95oos-41" value="服务响应" style="edgeLabel;html=1;align=center;verticalAlign=middle;resizable=0;points=[];" parent="DKz1Kuc2ZKXOYus95oos-40" vertex="1" connectable="0">
          <mxGeometry x="0.1568" y="-3" relative="1" as="geometry">
            <mxPoint as="offset" />
          </mxGeometry>
        </mxCell>
        <mxCell id="DKz1Kuc2ZKXOYus95oos-19" value="Send()" style="whiteSpace=wrap;html=1;" parent="1" vertex="1">
          <mxGeometry x="500" y="460" width="110" height="20" as="geometry" />
        </mxCell>
        <mxCell id="DKz1Kuc2ZKXOYus95oos-34" style="edgeStyle=orthogonalEdgeStyle;rounded=0;orthogonalLoop=1;jettySize=auto;html=1;exitX=0.5;exitY=1;exitDx=0;exitDy=0;entryX=0.5;entryY=0;entryDx=0;entryDy=0;" parent="1" source="DKz1Kuc2ZKXOYus95oos-20" target="DKz1Kuc2ZKXOYus95oos-33" edge="1">
          <mxGeometry relative="1" as="geometry" />
        </mxCell>
        <mxCell id="DKz1Kuc2ZKXOYus95oos-20" value="Recv()" style="whiteSpace=wrap;html=1;" parent="1" vertex="1">
          <mxGeometry x="500" y="500" width="110" height="20" as="geometry" />
        </mxCell>
        <mxCell id="DKz1Kuc2ZKXOYus95oos-23" value="" style="edgeStyle=orthogonalEdgeStyle;rounded=0;orthogonalLoop=1;jettySize=auto;html=1;" parent="1" source="DKz1Kuc2ZKXOYus95oos-24" target="DKz1Kuc2ZKXOYus95oos-26" edge="1">
          <mxGeometry relative="1" as="geometry" />
        </mxCell>
        <mxCell id="DKz1Kuc2ZKXOYus95oos-24" value="Socket()" style="rounded=0;whiteSpace=wrap;html=1;" parent="1" vertex="1">
          <mxGeometry x="214" y="255" width="110" height="20" as="geometry" />
        </mxCell>
        <mxCell id="DKz1Kuc2ZKXOYus95oos-25" value="" style="edgeStyle=orthogonalEdgeStyle;rounded=0;orthogonalLoop=1;jettySize=auto;html=1;" parent="1" source="DKz1Kuc2ZKXOYus95oos-26" target="DKz1Kuc2ZKXOYus95oos-28" edge="1">
          <mxGeometry relative="1" as="geometry" />
        </mxCell>
        <mxCell id="DKz1Kuc2ZKXOYus95oos-36" style="rounded=0;orthogonalLoop=1;jettySize=auto;html=1;exitX=1;exitY=0.5;exitDx=0;exitDy=0;startArrow=classic;startFill=1;" parent="1" source="DKz1Kuc2ZKXOYus95oos-26" edge="1">
          <mxGeometry relative="1" as="geometry">
            <mxPoint x="550" y="320" as="targetPoint" />
          </mxGeometry>
        </mxCell>
        <mxCell id="DKz1Kuc2ZKXOYus95oos-37" value="连接建立&lt;br&gt;TCP三次握手" style="edgeLabel;html=1;align=center;verticalAlign=middle;resizable=0;points=[];" parent="DKz1Kuc2ZKXOYus95oos-36" vertex="1" connectable="0">
          <mxGeometry x="-0.2159" y="-2" relative="1" as="geometry">
            <mxPoint as="offset" />
          </mxGeometry>
        </mxCell>
        <mxCell id="DKz1Kuc2ZKXOYus95oos-26" value="Connect()" style="rounded=0;whiteSpace=wrap;html=1;" parent="1" vertex="1">
          <mxGeometry x="214" y="302" width="110" height="20" as="geometry" />
        </mxCell>
        <mxCell id="DKz1Kuc2ZKXOYus95oos-27" value="" style="edgeStyle=orthogonalEdgeStyle;rounded=0;orthogonalLoop=1;jettySize=auto;html=1;" parent="1" source="DKz1Kuc2ZKXOYus95oos-28" target="DKz1Kuc2ZKXOYus95oos-30" edge="1">
          <mxGeometry relative="1" as="geometry" />
        </mxCell>
        <mxCell id="DKz1Kuc2ZKXOYus95oos-38" style="rounded=0;orthogonalLoop=1;jettySize=auto;html=1;exitX=1;exitY=0.5;exitDx=0;exitDy=0;entryX=0;entryY=0.5;entryDx=0;entryDy=0;" parent="1" source="DKz1Kuc2ZKXOYus95oos-28" target="DKz1Kuc2ZKXOYus95oos-10" edge="1">
          <mxGeometry relative="1" as="geometry" />
        </mxCell>
        <mxCell id="DKz1Kuc2ZKXOYus95oos-39" value="服务请求" style="edgeLabel;html=1;align=center;verticalAlign=middle;resizable=0;points=[];" parent="DKz1Kuc2ZKXOYus95oos-38" vertex="1" connectable="0">
          <mxGeometry x="-0.1654" relative="1" as="geometry">
            <mxPoint as="offset" />
          </mxGeometry>
        </mxCell>
        <mxCell id="DKz1Kuc2ZKXOYus95oos-28" value="Send()" style="rounded=0;whiteSpace=wrap;html=1;" parent="1" vertex="1">
          <mxGeometry x="214" y="349" width="110" height="20" as="geometry" />
        </mxCell>
        <mxCell id="DKz1Kuc2ZKXOYus95oos-29" value="" style="edgeStyle=orthogonalEdgeStyle;rounded=0;orthogonalLoop=1;jettySize=auto;html=1;entryX=0.5;entryY=0;entryDx=0;entryDy=0;" parent="1" source="DKz1Kuc2ZKXOYus95oos-30" target="DKz1Kuc2ZKXOYus95oos-31" edge="1">
          <mxGeometry relative="1" as="geometry">
            <mxPoint x="269" y="505" as="targetPoint" />
          </mxGeometry>
        </mxCell>
        <mxCell id="DKz1Kuc2ZKXOYus95oos-35" style="edgeStyle=orthogonalEdgeStyle;rounded=0;orthogonalLoop=1;jettySize=auto;html=1;exitX=0;exitY=0.5;exitDx=0;exitDy=0;entryX=0;entryY=0.75;entryDx=0;entryDy=0;" parent="1" source="DKz1Kuc2ZKXOYus95oos-30" target="DKz1Kuc2ZKXOYus95oos-28" edge="1">
          <mxGeometry relative="1" as="geometry" />
        </mxCell>
        <mxCell id="DKz1Kuc2ZKXOYus95oos-30" value="Recv()" style="rounded=0;whiteSpace=wrap;html=1;" parent="1" vertex="1">
          <mxGeometry x="214" y="456" width="110" height="20" as="geometry" />
        </mxCell>
        <mxCell id="DKz1Kuc2ZKXOYus95oos-42" style="rounded=0;orthogonalLoop=1;jettySize=auto;html=1;entryX=0;entryY=0.75;entryDx=0;entryDy=0;" parent="1" source="DKz1Kuc2ZKXOYus95oos-31" target="DKz1Kuc2ZKXOYus95oos-20" edge="1">
          <mxGeometry relative="1" as="geometry" />
        </mxCell>
        <mxCell id="DKz1Kuc2ZKXOYus95oos-43" value="文件结束通知" style="edgeLabel;html=1;align=center;verticalAlign=middle;resizable=0;points=[];" parent="DKz1Kuc2ZKXOYus95oos-42" vertex="1" connectable="0">
          <mxGeometry x="-0.1561" y="-1" relative="1" as="geometry">
            <mxPoint as="offset" />
          </mxGeometry>
        </mxCell>
        <mxCell id="DKz1Kuc2ZKXOYus95oos-31" value="Close()" style="rounded=0;whiteSpace=wrap;html=1;" parent="1" vertex="1">
          <mxGeometry x="214" y="500" width="110" height="20" as="geometry" />
        </mxCell>
        <mxCell id="DKz1Kuc2ZKXOYus95oos-33" value="Close()" style="rounded=0;whiteSpace=wrap;html=1;" parent="1" vertex="1">
          <mxGeometry x="500" y="540" width="110" height="20" as="geometry" />
        </mxCell>
        <mxCell id="m4xQPMhim5gjdKh0QAaY-1" value="" style="edgeStyle=orthogonalEdgeStyle;rounded=0;orthogonalLoop=1;jettySize=auto;html=1;" parent="1" source="DKz1Kuc2ZKXOYus95oos-44" target="DKz1Kuc2ZKXOYus95oos-45" edge="1">
          <mxGeometry relative="1" as="geometry" />
        </mxCell>
        <mxCell id="m4xQPMhim5gjdKh0QAaY-2" value="注册读就绪事件" style="edgeLabel;html=1;align=center;verticalAlign=middle;resizable=0;points=[];" parent="m4xQPMhim5gjdKh0QAaY-1" vertex="1" connectable="0">
          <mxGeometry x="-0.24" relative="1" as="geometry">
            <mxPoint as="offset" />
          </mxGeometry>
        </mxCell>
        <mxCell id="DKz1Kuc2ZKXOYus95oos-44" value="开始" style="rounded=1;whiteSpace=wrap;html=1;" parent="1" vertex="1">
          <mxGeometry x="220" y="610" width="80" height="30" as="geometry" />
        </mxCell>
        <mxCell id="m4xQPMhim5gjdKh0QAaY-5" value="" style="edgeStyle=orthogonalEdgeStyle;rounded=0;orthogonalLoop=1;jettySize=auto;html=1;" parent="1" source="DKz1Kuc2ZKXOYus95oos-45" target="m4xQPMhim5gjdKh0QAaY-4" edge="1">
          <mxGeometry relative="1" as="geometry" />
        </mxCell>
        <mxCell id="DKz1Kuc2ZKXOYus95oos-45" value="epoll()" style="rounded=0;whiteSpace=wrap;html=1;" parent="1" vertex="1">
          <mxGeometry x="200" y="680" width="120" height="30" as="geometry" />
        </mxCell>
        <mxCell id="m4xQPMhim5gjdKh0QAaY-3" value="循环等待监听/连接&lt;br&gt;socket上的事件" style="text;html=1;align=center;verticalAlign=middle;resizable=0;points=[];autosize=1;strokeColor=none;fillColor=none;" parent="1" vertex="1">
          <mxGeometry x="80" y="673" width="120" height="40" as="geometry" />
        </mxCell>
        <mxCell id="m4xQPMhim5gjdKh0QAaY-7" value="" style="edgeStyle=orthogonalEdgeStyle;rounded=0;orthogonalLoop=1;jettySize=auto;html=1;" parent="1" source="m4xQPMhim5gjdKh0QAaY-4" target="m4xQPMhim5gjdKh0QAaY-6" edge="1">
          <mxGeometry relative="1" as="geometry" />
        </mxCell>
        <mxCell id="m4xQPMhim5gjdKh0QAaY-4" value="所有就绪的fd都处理(读取)完毕?" style="rhombus;whiteSpace=wrap;html=1;rounded=0;" parent="1" vertex="1">
          <mxGeometry x="165" y="740" width="190" height="45" as="geometry" />
        </mxCell>
        <mxCell id="m4xQPMhim5gjdKh0QAaY-11" style="rounded=0;orthogonalLoop=1;jettySize=auto;html=1;exitX=0.25;exitY=1;exitDx=0;exitDy=0;entryX=0.5;entryY=0;entryDx=0;entryDy=0;" parent="1" source="m4xQPMhim5gjdKh0QAaY-6" target="m4xQPMhim5gjdKh0QAaY-8" edge="1">
          <mxGeometry relative="1" as="geometry" />
        </mxCell>
        <mxCell id="m4xQPMhim5gjdKh0QAaY-13" value="写事件" style="edgeLabel;html=1;align=center;verticalAlign=middle;resizable=0;points=[];" parent="m4xQPMhim5gjdKh0QAaY-11" vertex="1" connectable="0">
          <mxGeometry x="-0.1318" y="-4" relative="1" as="geometry">
            <mxPoint x="-1" as="offset" />
          </mxGeometry>
        </mxCell>
        <mxCell id="m4xQPMhim5gjdKh0QAaY-12" style="rounded=0;orthogonalLoop=1;jettySize=auto;html=1;exitX=0.75;exitY=1;exitDx=0;exitDy=0;entryX=0.5;entryY=0;entryDx=0;entryDy=0;" parent="1" source="m4xQPMhim5gjdKh0QAaY-6" target="m4xQPMhim5gjdKh0QAaY-9" edge="1">
          <mxGeometry relative="1" as="geometry" />
        </mxCell>
        <mxCell id="m4xQPMhim5gjdKh0QAaY-14" value="读事件" style="edgeLabel;html=1;align=center;verticalAlign=middle;resizable=0;points=[];" parent="m4xQPMhim5gjdKh0QAaY-12" vertex="1" connectable="0">
          <mxGeometry x="-0.2259" y="-1" relative="1" as="geometry">
            <mxPoint as="offset" />
          </mxGeometry>
        </mxCell>
        <mxCell id="m4xQPMhim5gjdKh0QAaY-6" value="分析分配事件类型" style="whiteSpace=wrap;html=1;rounded=0;" parent="1" vertex="1">
          <mxGeometry x="200" y="820" width="120" height="20" as="geometry" />
        </mxCell>
        <mxCell id="m4xQPMhim5gjdKh0QAaY-10" style="edgeStyle=orthogonalEdgeStyle;rounded=0;orthogonalLoop=1;jettySize=auto;html=1;entryX=0;entryY=0.5;entryDx=0;entryDy=0;" parent="1" source="m4xQPMhim5gjdKh0QAaY-8" target="m4xQPMhim5gjdKh0QAaY-4" edge="1">
          <mxGeometry relative="1" as="geometry">
            <Array as="points">
              <mxPoint x="90" y="885" />
              <mxPoint x="90" y="763" />
            </Array>
          </mxGeometry>
        </mxCell>
        <mxCell id="m4xQPMhim5gjdKh0QAaY-8" value="往socket写数据" style="rounded=0;whiteSpace=wrap;html=1;" parent="1" vertex="1">
          <mxGeometry x="120" y="870" width="120" height="30" as="geometry" />
        </mxCell>
        <mxCell id="m4xQPMhim5gjdKh0QAaY-16" value="" style="edgeStyle=orthogonalEdgeStyle;rounded=0;orthogonalLoop=1;jettySize=auto;html=1;" parent="1" source="m4xQPMhim5gjdKh0QAaY-9" target="m4xQPMhim5gjdKh0QAaY-15" edge="1">
          <mxGeometry relative="1" as="geometry" />
        </mxCell>
        <mxCell id="m4xQPMhim5gjdKh0QAaY-17" value="插入封装的&lt;br&gt;读取的数据包" style="edgeLabel;html=1;align=center;verticalAlign=middle;resizable=0;points=[];" parent="m4xQPMhim5gjdKh0QAaY-16" vertex="1" connectable="0">
          <mxGeometry x="-0.2222" y="1" relative="1" as="geometry">
            <mxPoint x="15" y="1" as="offset" />
          </mxGeometry>
        </mxCell>
        <mxCell id="m4xQPMhim5gjdKh0QAaY-9" value="循环读入客户数据" style="rounded=0;whiteSpace=wrap;html=1;" parent="1" vertex="1">
          <mxGeometry x="280" y="870" width="120" height="30" as="geometry" />
        </mxCell>
        <mxCell id="m4xQPMhim5gjdKh0QAaY-20" style="edgeStyle=orthogonalEdgeStyle;rounded=0;orthogonalLoop=1;jettySize=auto;html=1;exitX=1;exitY=0.25;exitDx=0;exitDy=0;entryX=0;entryY=0.5;entryDx=0;entryDy=0;" parent="1" source="m4xQPMhim5gjdKh0QAaY-15" target="m4xQPMhim5gjdKh0QAaY-18" edge="1">
          <mxGeometry relative="1" as="geometry" />
        </mxCell>
        <mxCell id="m4xQPMhim5gjdKh0QAaY-21" style="edgeStyle=orthogonalEdgeStyle;rounded=0;orthogonalLoop=1;jettySize=auto;html=1;exitX=1;exitY=0.75;exitDx=0;exitDy=0;entryX=0;entryY=0.5;entryDx=0;entryDy=0;" parent="1" source="m4xQPMhim5gjdKh0QAaY-15" target="m4xQPMhim5gjdKh0QAaY-19" edge="1">
          <mxGeometry relative="1" as="geometry" />
        </mxCell>
        <mxCell id="m4xQPMhim5gjdKh0QAaY-26" style="rounded=0;orthogonalLoop=1;jettySize=auto;html=1;exitX=1;exitY=1;exitDx=0;exitDy=0;entryX=0;entryY=0.75;entryDx=0;entryDy=0;" parent="1" source="m4xQPMhim5gjdKh0QAaY-15" target="m4xQPMhim5gjdKh0QAaY-24" edge="1">
          <mxGeometry relative="1" as="geometry" />
        </mxCell>
        <mxCell id="m4xQPMhim5gjdKh0QAaY-27" style="rounded=0;orthogonalLoop=1;jettySize=auto;html=1;exitX=1;exitY=0;exitDx=0;exitDy=0;entryX=0;entryY=0.25;entryDx=0;entryDy=0;" parent="1" source="m4xQPMhim5gjdKh0QAaY-15" target="m4xQPMhim5gjdKh0QAaY-23" edge="1">
          <mxGeometry relative="1" as="geometry" />
        </mxCell>
        <mxCell id="m4xQPMhim5gjdKh0QAaY-15" value="&lt;br&gt;工&lt;br&gt;作&lt;br&gt;队&lt;br&gt;列&lt;br&gt;" style="rounded=0;whiteSpace=wrap;html=1;" parent="1" vertex="1">
          <mxGeometry x="520" y="800" width="30" height="160" as="geometry" />
        </mxCell>
        <mxCell id="m4xQPMhim5gjdKh0QAaY-18" value="工作线程" style="whiteSpace=wrap;html=1;" parent="1" vertex="1">
          <mxGeometry x="590" y="857" width="110" height="20" as="geometry" />
        </mxCell>
        <mxCell id="m4xQPMhim5gjdKh0QAaY-19" value="工作线程" style="rounded=0;whiteSpace=wrap;html=1;" parent="1" vertex="1">
          <mxGeometry x="590" y="893" width="110" height="20" as="geometry" />
        </mxCell>
        <mxCell id="m4xQPMhim5gjdKh0QAaY-23" value="工作线程" style="whiteSpace=wrap;html=1;" parent="1" vertex="1">
          <mxGeometry x="590" y="814" width="110" height="20" as="geometry" />
        </mxCell>
        <mxCell id="m4xQPMhim5gjdKh0QAaY-24" value="工作线程" style="rounded=0;whiteSpace=wrap;html=1;" parent="1" vertex="1">
          <mxGeometry x="590" y="930" width="110" height="20" as="geometry" />
        </mxCell>
        <mxCell id="m4xQPMhim5gjdKh0QAaY-29" value="&lt;b&gt;主线程&lt;/b&gt;" style="text;html=1;align=center;verticalAlign=middle;resizable=0;points=[];autosize=1;strokeColor=none;fillColor=none;" parent="1" vertex="1">
          <mxGeometry x="310" y="920" width="60" height="30" as="geometry" />
        </mxCell>
        <mxCell id="m4xQPMhim5gjdKh0QAaY-31" value="&lt;b&gt;线程池&lt;/b&gt;" style="text;html=1;align=center;verticalAlign=middle;resizable=0;points=[];autosize=1;strokeColor=none;fillColor=none;" parent="1" vertex="1">
          <mxGeometry x="430" y="940" width="60" height="30" as="geometry" />
        </mxCell>
        <mxCell id="-SEWYiFgOWvP7asbk5Ls-1" value="任务队列" style="shape=cylinder3;whiteSpace=wrap;html=1;boundedLbl=1;backgroundOutline=1;size=15;" parent="1" vertex="1">
          <mxGeometry x="239" y="1299" width="60" height="80" as="geometry" />
        </mxCell>
        <mxCell id="-SEWYiFgOWvP7asbk5Ls-2" value="生产者输入待处理Task&lt;br&gt;到任务队列中" style="shape=umlActor;verticalLabelPosition=bottom;verticalAlign=top;html=1;outlineConnect=0;" parent="1" vertex="1">
          <mxGeometry x="100" y="1250" width="30" height="60" as="geometry" />
        </mxCell>
        <mxCell id="-SEWYiFgOWvP7asbk5Ls-5" value="生产者输入待处理Task&lt;br&gt;到任务队列中" style="shape=umlActor;verticalLabelPosition=bottom;verticalAlign=top;html=1;outlineConnect=0;" parent="1" vertex="1">
          <mxGeometry x="100" y="1360" width="30" height="60" as="geometry" />
        </mxCell>
        <mxCell id="-SEWYiFgOWvP7asbk5Ls-8" style="rounded=0;orthogonalLoop=1;jettySize=auto;html=1;exitX=0.5;exitY=0.5;exitDx=0;exitDy=0;exitPerimeter=0;entryX=0;entryY=0.5;entryDx=0;entryDy=0;entryPerimeter=0;" parent="1" source="-SEWYiFgOWvP7asbk5Ls-2" target="-SEWYiFgOWvP7asbk5Ls-1" edge="1">
          <mxGeometry relative="1" as="geometry" />
        </mxCell>
        <mxCell id="-SEWYiFgOWvP7asbk5Ls-9" style="rounded=0;orthogonalLoop=1;jettySize=auto;html=1;exitX=0.5;exitY=0.5;exitDx=0;exitDy=0;exitPerimeter=0;entryX=0;entryY=0.5;entryDx=0;entryDy=0;entryPerimeter=0;" parent="1" source="-SEWYiFgOWvP7asbk5Ls-5" target="-SEWYiFgOWvP7asbk5Ls-1" edge="1">
          <mxGeometry relative="1" as="geometry" />
        </mxCell>
        <mxCell id="-SEWYiFgOWvP7asbk5Ls-17" style="edgeStyle=orthogonalEdgeStyle;rounded=0;orthogonalLoop=1;jettySize=auto;html=1;exitX=1;exitY=0.5;exitDx=0;exitDy=0;entryX=0;entryY=0.5;entryDx=0;entryDy=0;" parent="1" source="-SEWYiFgOWvP7asbk5Ls-10" target="-SEWYiFgOWvP7asbk5Ls-11" edge="1">
          <mxGeometry relative="1" as="geometry" />
        </mxCell>
        <mxCell id="-SEWYiFgOWvP7asbk5Ls-18" style="edgeStyle=orthogonalEdgeStyle;rounded=0;orthogonalLoop=1;jettySize=auto;html=1;exitX=1;exitY=0.5;exitDx=0;exitDy=0;entryX=0;entryY=0.5;entryDx=0;entryDy=0;" parent="1" source="-SEWYiFgOWvP7asbk5Ls-10" target="-SEWYiFgOWvP7asbk5Ls-12" edge="1">
          <mxGeometry relative="1" as="geometry" />
        </mxCell>
        <mxCell id="-SEWYiFgOWvP7asbk5Ls-19" style="edgeStyle=orthogonalEdgeStyle;rounded=0;orthogonalLoop=1;jettySize=auto;html=1;exitX=1;exitY=0.5;exitDx=0;exitDy=0;entryX=0;entryY=0.5;entryDx=0;entryDy=0;" parent="1" source="-SEWYiFgOWvP7asbk5Ls-10" target="-SEWYiFgOWvP7asbk5Ls-13" edge="1">
          <mxGeometry relative="1" as="geometry" />
        </mxCell>
        <mxCell id="-SEWYiFgOWvP7asbk5Ls-20" style="edgeStyle=orthogonalEdgeStyle;rounded=0;orthogonalLoop=1;jettySize=auto;html=1;exitX=1;exitY=0.5;exitDx=0;exitDy=0;entryX=0;entryY=0.5;entryDx=0;entryDy=0;" parent="1" source="-SEWYiFgOWvP7asbk5Ls-10" target="-SEWYiFgOWvP7asbk5Ls-14" edge="1">
          <mxGeometry relative="1" as="geometry" />
        </mxCell>
        <mxCell id="-SEWYiFgOWvP7asbk5Ls-21" value="分配" style="edgeLabel;html=1;align=center;verticalAlign=middle;resizable=0;points=[];" parent="-SEWYiFgOWvP7asbk5Ls-20" vertex="1" connectable="0">
          <mxGeometry x="-0.7788" y="1" relative="1" as="geometry">
            <mxPoint as="offset" />
          </mxGeometry>
        </mxCell>
        <mxCell id="-SEWYiFgOWvP7asbk5Ls-10" value="&lt;font style=&quot;font-size: 19px;&quot;&gt;线&lt;br&gt;程&lt;br&gt;池&lt;/font&gt;" style="rounded=0;whiteSpace=wrap;html=1;" parent="1" vertex="1">
          <mxGeometry x="366" y="1247" width="60" height="210" as="geometry" />
        </mxCell>
        <mxCell id="-SEWYiFgOWvP7asbk5Ls-11" value="工作线程" style="rounded=0;whiteSpace=wrap;html=1;" parent="1" vertex="1">
          <mxGeometry x="515" y="1242" width="110" height="40" as="geometry" />
        </mxCell>
        <mxCell id="-SEWYiFgOWvP7asbk5Ls-12" value="工作线程" style="rounded=0;whiteSpace=wrap;html=1;" parent="1" vertex="1">
          <mxGeometry x="515" y="1302" width="110" height="40" as="geometry" />
        </mxCell>
        <mxCell id="-SEWYiFgOWvP7asbk5Ls-13" value="工作线程" style="rounded=0;whiteSpace=wrap;html=1;" parent="1" vertex="1">
          <mxGeometry x="515" y="1362" width="110" height="40" as="geometry" />
        </mxCell>
        <mxCell id="-SEWYiFgOWvP7asbk5Ls-14" value="工作线程" style="rounded=0;whiteSpace=wrap;html=1;" parent="1" vertex="1">
          <mxGeometry x="515" y="1422" width="110" height="40" as="geometry" />
        </mxCell>
        <mxCell id="-SEWYiFgOWvP7asbk5Ls-15" style="edgeStyle=orthogonalEdgeStyle;rounded=0;orthogonalLoop=1;jettySize=auto;html=1;exitX=1;exitY=0.5;exitDx=0;exitDy=0;exitPerimeter=0;entryX=0;entryY=0.429;entryDx=0;entryDy=0;entryPerimeter=0;" parent="1" source="-SEWYiFgOWvP7asbk5Ls-1" target="-SEWYiFgOWvP7asbk5Ls-10" edge="1">
          <mxGeometry relative="1" as="geometry" />
        </mxCell>
        <mxCell id="-SEWYiFgOWvP7asbk5Ls-16" value="消费者&lt;br&gt;取任务" style="edgeLabel;html=1;align=center;verticalAlign=middle;resizable=0;points=[];" parent="-SEWYiFgOWvP7asbk5Ls-15" vertex="1" connectable="0">
          <mxGeometry x="-0.1076" y="1" relative="1" as="geometry">
            <mxPoint x="-6" as="offset" />
          </mxGeometry>
        </mxCell>
        <mxCell id="-SEWYiFgOWvP7asbk5Ls-23" value="&lt;font color=&quot;#cc0000&quot; style=&quot;font-size: 14px;&quot;&gt;&lt;b&gt;生产者&lt;/b&gt;&lt;/font&gt;" style="text;html=1;align=center;verticalAlign=middle;resizable=0;points=[];autosize=1;strokeColor=none;fillColor=none;" parent="1" vertex="1">
          <mxGeometry x="144" y="1450" width="70" height="30" as="geometry" />
        </mxCell>
        <mxCell id="-SEWYiFgOWvP7asbk5Ls-25" value="&lt;font color=&quot;#cc0000&quot; style=&quot;font-size: 14px;&quot;&gt;&lt;b&gt;消费者&lt;/b&gt;&lt;/font&gt;" style="text;html=1;align=center;verticalAlign=middle;resizable=0;points=[];autosize=1;strokeColor=none;fillColor=none;" parent="1" vertex="1">
          <mxGeometry x="570" y="1462" width="70" height="30" as="geometry" />
        </mxCell>
        <mxCell id="jEIaa_g_1_Zy7GzbISjY-1" value="" style="rounded=0;whiteSpace=wrap;html=1;dashed=1;" vertex="1" parent="1">
          <mxGeometry x="281" y="1590" width="290" height="255" as="geometry" />
        </mxCell>
        <mxCell id="jEIaa_g_1_Zy7GzbISjY-2" value="任务队列&lt;div&gt;http_conn&lt;/div&gt;" style="shape=cylinder3;whiteSpace=wrap;html=1;boundedLbl=1;backgroundOutline=1;size=15;" vertex="1" parent="1">
          <mxGeometry x="165" y="1656" width="60" height="80" as="geometry" />
        </mxCell>
        <mxCell id="jEIaa_g_1_Zy7GzbISjY-3" style="edgeStyle=orthogonalEdgeStyle;rounded=0;orthogonalLoop=1;jettySize=auto;html=1;exitX=1;exitY=0.5;exitDx=0;exitDy=0;entryX=0;entryY=0.5;entryDx=0;entryDy=0;" edge="1" parent="1" source="jEIaa_g_1_Zy7GzbISjY-8" target="jEIaa_g_1_Zy7GzbISjY-9">
          <mxGeometry relative="1" as="geometry" />
        </mxCell>
        <mxCell id="jEIaa_g_1_Zy7GzbISjY-4" style="edgeStyle=orthogonalEdgeStyle;rounded=0;orthogonalLoop=1;jettySize=auto;html=1;exitX=1;exitY=0.5;exitDx=0;exitDy=0;entryX=0;entryY=0.5;entryDx=0;entryDy=0;" edge="1" parent="1" source="jEIaa_g_1_Zy7GzbISjY-8" target="jEIaa_g_1_Zy7GzbISjY-10">
          <mxGeometry relative="1" as="geometry" />
        </mxCell>
        <mxCell id="jEIaa_g_1_Zy7GzbISjY-5" style="edgeStyle=orthogonalEdgeStyle;rounded=0;orthogonalLoop=1;jettySize=auto;html=1;exitX=1;exitY=0.5;exitDx=0;exitDy=0;entryX=0;entryY=0.5;entryDx=0;entryDy=0;" edge="1" parent="1" source="jEIaa_g_1_Zy7GzbISjY-8" target="jEIaa_g_1_Zy7GzbISjY-11">
          <mxGeometry relative="1" as="geometry" />
        </mxCell>
        <mxCell id="jEIaa_g_1_Zy7GzbISjY-6" style="edgeStyle=orthogonalEdgeStyle;rounded=0;orthogonalLoop=1;jettySize=auto;html=1;exitX=1;exitY=0.5;exitDx=0;exitDy=0;entryX=0;entryY=0.5;entryDx=0;entryDy=0;" edge="1" parent="1" source="jEIaa_g_1_Zy7GzbISjY-8" target="jEIaa_g_1_Zy7GzbISjY-12">
          <mxGeometry relative="1" as="geometry" />
        </mxCell>
        <mxCell id="jEIaa_g_1_Zy7GzbISjY-7" value="分配" style="edgeLabel;html=1;align=center;verticalAlign=middle;resizable=0;points=[];" vertex="1" connectable="0" parent="jEIaa_g_1_Zy7GzbISjY-6">
          <mxGeometry x="-0.7788" y="1" relative="1" as="geometry">
            <mxPoint as="offset" />
          </mxGeometry>
        </mxCell>
        <mxCell id="jEIaa_g_1_Zy7GzbISjY-8" value="&lt;font style=&quot;font-size: 19px;&quot;&gt;线&lt;br&gt;程&lt;br&gt;池&lt;/font&gt;" style="rounded=0;whiteSpace=wrap;html=1;" vertex="1" parent="1">
          <mxGeometry x="292" y="1604" width="60" height="210" as="geometry" />
        </mxCell>
        <mxCell id="jEIaa_g_1_Zy7GzbISjY-17" value="" style="edgeStyle=orthogonalEdgeStyle;rounded=0;orthogonalLoop=1;jettySize=auto;html=1;" edge="1" parent="1" source="jEIaa_g_1_Zy7GzbISjY-9" target="jEIaa_g_1_Zy7GzbISjY-16">
          <mxGeometry relative="1" as="geometry" />
        </mxCell>
        <mxCell id="jEIaa_g_1_Zy7GzbISjY-27" value="阻塞" style="edgeLabel;html=1;align=center;verticalAlign=middle;resizable=0;points=[];" vertex="1" connectable="0" parent="jEIaa_g_1_Zy7GzbISjY-17">
          <mxGeometry x="-0.055" y="1" relative="1" as="geometry">
            <mxPoint as="offset" />
          </mxGeometry>
        </mxCell>
        <mxCell id="jEIaa_g_1_Zy7GzbISjY-9" value="工作线程worker" style="rounded=0;whiteSpace=wrap;html=1;" vertex="1" parent="1">
          <mxGeometry x="441" y="1599" width="110" height="40" as="geometry" />
        </mxCell>
        <mxCell id="jEIaa_g_1_Zy7GzbISjY-10" value="工作线程worker" style="rounded=0;whiteSpace=wrap;html=1;" vertex="1" parent="1">
          <mxGeometry x="441" y="1659" width="110" height="40" as="geometry" />
        </mxCell>
        <mxCell id="jEIaa_g_1_Zy7GzbISjY-11" value="工作线程worker" style="rounded=0;whiteSpace=wrap;html=1;" vertex="1" parent="1">
          <mxGeometry x="441" y="1719" width="110" height="40" as="geometry" />
        </mxCell>
        <mxCell id="jEIaa_g_1_Zy7GzbISjY-12" value="工作线程worker" style="rounded=0;whiteSpace=wrap;html=1;" vertex="1" parent="1">
          <mxGeometry x="441" y="1779" width="110" height="40" as="geometry" />
        </mxCell>
        <mxCell id="jEIaa_g_1_Zy7GzbISjY-13" style="edgeStyle=orthogonalEdgeStyle;rounded=0;orthogonalLoop=1;jettySize=auto;html=1;exitX=1;exitY=0.5;exitDx=0;exitDy=0;exitPerimeter=0;entryX=0;entryY=0.429;entryDx=0;entryDy=0;entryPerimeter=0;" edge="1" parent="1" source="jEIaa_g_1_Zy7GzbISjY-2" target="jEIaa_g_1_Zy7GzbISjY-8">
          <mxGeometry relative="1" as="geometry" />
        </mxCell>
        <mxCell id="jEIaa_g_1_Zy7GzbISjY-14" value="消费者&lt;br&gt;取任务" style="edgeLabel;html=1;align=center;verticalAlign=middle;resizable=0;points=[];" vertex="1" connectable="0" parent="jEIaa_g_1_Zy7GzbISjY-13">
          <mxGeometry x="-0.1076" y="1" relative="1" as="geometry">
            <mxPoint x="-6" as="offset" />
          </mxGeometry>
        </mxCell>
        <mxCell id="jEIaa_g_1_Zy7GzbISjY-15" value="&lt;font color=&quot;#cc0000&quot; style=&quot;font-size: 14px;&quot;&gt;&lt;b&gt;消费者&lt;/b&gt;&lt;/font&gt;" style="text;html=1;align=center;verticalAlign=middle;resizable=0;points=[];autosize=1;strokeColor=none;fillColor=none;" vertex="1" parent="1">
          <mxGeometry x="496" y="1819" width="70" height="30" as="geometry" />
        </mxCell>
        <mxCell id="jEIaa_g_1_Zy7GzbISjY-30" value="" style="edgeStyle=orthogonalEdgeStyle;rounded=0;orthogonalLoop=1;jettySize=auto;html=1;" edge="1" parent="1" source="jEIaa_g_1_Zy7GzbISjY-16">
          <mxGeometry relative="1" as="geometry">
            <mxPoint x="645" y="1680" as="targetPoint" />
            <Array as="points">
              <mxPoint x="785" y="1660" />
              <mxPoint x="645" y="1660" />
            </Array>
          </mxGeometry>
        </mxCell>
        <mxCell id="jEIaa_g_1_Zy7GzbISjY-32" style="edgeStyle=orthogonalEdgeStyle;rounded=0;orthogonalLoop=1;jettySize=auto;html=1;exitX=0.5;exitY=1;exitDx=0;exitDy=0;entryX=0.5;entryY=0;entryDx=0;entryDy=0;" edge="1" parent="1" source="jEIaa_g_1_Zy7GzbISjY-16" target="jEIaa_g_1_Zy7GzbISjY-31">
          <mxGeometry relative="1" as="geometry" />
        </mxCell>
        <mxCell id="jEIaa_g_1_Zy7GzbISjY-16" value="退出阻塞，&lt;div&gt;开始执行任务&lt;/div&gt;" style="rounded=0;whiteSpace=wrap;html=1;" vertex="1" parent="1">
          <mxGeometry x="730" y="1599" width="110" height="40" as="geometry" />
        </mxCell>
        <mxCell id="jEIaa_g_1_Zy7GzbISjY-21" value="生产者输入待处理Task&lt;br&gt;到任务队列中" style="shape=umlActor;verticalLabelPosition=bottom;verticalAlign=top;html=1;outlineConnect=0;" vertex="1" parent="1">
          <mxGeometry x="60" y="1560" width="30" height="60" as="geometry" />
        </mxCell>
        <mxCell id="jEIaa_g_1_Zy7GzbISjY-22" style="rounded=0;orthogonalLoop=1;jettySize=auto;html=1;exitX=1;exitY=0.3333333333333333;exitDx=0;exitDy=0;exitPerimeter=0;entryX=0.5;entryY=0;entryDx=0;entryDy=0;entryPerimeter=0;" edge="1" parent="1" source="jEIaa_g_1_Zy7GzbISjY-21" target="jEIaa_g_1_Zy7GzbISjY-2">
          <mxGeometry relative="1" as="geometry" />
        </mxCell>
        <mxCell id="jEIaa_g_1_Zy7GzbISjY-24" value="append新任务" style="edgeLabel;html=1;align=center;verticalAlign=middle;resizable=0;points=[];" vertex="1" connectable="0" parent="jEIaa_g_1_Zy7GzbISjY-22">
          <mxGeometry x="-0.2295" y="1" relative="1" as="geometry">
            <mxPoint as="offset" />
          </mxGeometry>
        </mxCell>
        <mxCell id="jEIaa_g_1_Zy7GzbISjY-25" value="" style="endArrow=classic;html=1;rounded=0;entryX=0.5;entryY=0;entryDx=0;entryDy=0;edgeStyle=orthogonalEdgeStyle;" edge="1" parent="1" target="jEIaa_g_1_Zy7GzbISjY-16">
          <mxGeometry width="50" height="50" relative="1" as="geometry">
            <mxPoint x="160" y="1630" as="sourcePoint" />
            <mxPoint x="440" y="1520" as="targetPoint" />
            <Array as="points">
              <mxPoint x="160" y="1631" />
              <mxPoint x="240" y="1631" />
              <mxPoint x="240" y="1560" />
              <mxPoint x="780" y="1560" />
              <mxPoint x="780" y="1599" />
            </Array>
          </mxGeometry>
        </mxCell>
        <mxCell id="jEIaa_g_1_Zy7GzbISjY-26" value="释放线程池信号量许可，使阻塞的线程退出阻塞状态" style="edgeLabel;html=1;align=center;verticalAlign=middle;resizable=0;points=[];" vertex="1" connectable="0" parent="jEIaa_g_1_Zy7GzbISjY-25">
          <mxGeometry x="0.0104" y="-1" relative="1" as="geometry">
            <mxPoint as="offset" />
          </mxGeometry>
        </mxCell>
        <mxCell id="jEIaa_g_1_Zy7GzbISjY-39" value="" style="edgeStyle=orthogonalEdgeStyle;rounded=0;orthogonalLoop=1;jettySize=auto;html=1;" edge="1" parent="1" source="jEIaa_g_1_Zy7GzbISjY-28" target="jEIaa_g_1_Zy7GzbISjY-38">
          <mxGeometry relative="1" as="geometry" />
        </mxCell>
        <mxCell id="jEIaa_g_1_Zy7GzbISjY-40" value="需要处理I/O的读写操作" style="edgeLabel;html=1;align=center;verticalAlign=middle;resizable=0;points=[];" vertex="1" connectable="0" parent="jEIaa_g_1_Zy7GzbISjY-39">
          <mxGeometry x="-0.2563" relative="1" as="geometry">
            <mxPoint x="3" y="-18" as="offset" />
          </mxGeometry>
        </mxCell>
        <mxCell id="jEIaa_g_1_Zy7GzbISjY-42" style="edgeStyle=orthogonalEdgeStyle;rounded=0;orthogonalLoop=1;jettySize=auto;html=1;exitX=0.5;exitY=1;exitDx=0;exitDy=0;entryX=0.5;entryY=0;entryDx=0;entryDy=0;" edge="1" parent="1" source="jEIaa_g_1_Zy7GzbISjY-28" target="jEIaa_g_1_Zy7GzbISjY-41">
          <mxGeometry relative="1" as="geometry" />
        </mxCell>
        <mxCell id="jEIaa_g_1_Zy7GzbISjY-28" value="Reactor模式" style="rounded=0;whiteSpace=wrap;html=1;" vertex="1" parent="1">
          <mxGeometry x="590" y="1682" width="110" height="40" as="geometry" />
        </mxCell>
        <mxCell id="jEIaa_g_1_Zy7GzbISjY-34" value="" style="edgeStyle=orthogonalEdgeStyle;rounded=0;orthogonalLoop=1;jettySize=auto;html=1;" edge="1" parent="1" source="jEIaa_g_1_Zy7GzbISjY-31" target="jEIaa_g_1_Zy7GzbISjY-33">
          <mxGeometry relative="1" as="geometry" />
        </mxCell>
        <mxCell id="jEIaa_g_1_Zy7GzbISjY-35" value="读写操作不在线程池中进行" style="edgeLabel;html=1;align=center;verticalAlign=middle;resizable=0;points=[];" vertex="1" connectable="0" parent="jEIaa_g_1_Zy7GzbISjY-34">
          <mxGeometry x="-0.44" y="1" relative="1" as="geometry">
            <mxPoint as="offset" />
          </mxGeometry>
        </mxCell>
        <mxCell id="jEIaa_g_1_Zy7GzbISjY-36" value="而是将完成读写后的数据串&lt;div&gt;到worker中进行下一步处理&lt;/div&gt;" style="edgeLabel;html=1;align=center;verticalAlign=middle;resizable=0;points=[];" vertex="1" connectable="0" parent="jEIaa_g_1_Zy7GzbISjY-34">
          <mxGeometry x="0.2563" y="-1" relative="1" as="geometry">
            <mxPoint as="offset" />
          </mxGeometry>
        </mxCell>
        <mxCell id="jEIaa_g_1_Zy7GzbISjY-31" value="Proactor模式" style="rounded=0;whiteSpace=wrap;html=1;" vertex="1" parent="1">
          <mxGeometry x="860" y="1682" width="110" height="40" as="geometry" />
        </mxCell>
        <mxCell id="jEIaa_g_1_Zy7GzbISjY-33" value="process&lt;div&gt;request&lt;/div&gt;" style="rounded=0;whiteSpace=wrap;html=1;" vertex="1" parent="1">
          <mxGeometry x="860" y="1793" width="110" height="40" as="geometry" />
        </mxCell>
        <mxCell id="jEIaa_g_1_Zy7GzbISjY-37" value="" style="rounded=0;whiteSpace=wrap;html=1;" vertex="1" parent="1">
          <mxGeometry x="1020" y="1462" width="120" height="60" as="geometry" />
        </mxCell>
        <mxCell id="jEIaa_g_1_Zy7GzbISjY-38" value="&lt;div&gt;request&lt;/div&gt;读操作" style="rounded=0;whiteSpace=wrap;html=1;" vertex="1" parent="1">
          <mxGeometry x="590" y="1793" width="50" height="37" as="geometry" />
        </mxCell>
        <mxCell id="jEIaa_g_1_Zy7GzbISjY-41" value="&lt;div&gt;request&lt;br&gt;&lt;/div&gt;写操作" style="rounded=0;whiteSpace=wrap;html=1;" vertex="1" parent="1">
          <mxGeometry x="650" y="1793" width="50" height="37" as="geometry" />
        </mxCell>
      </root>
    </mxGraphModel>
  </diagram>
</mxfile>
